<?xml version="1.0" encoding="UTF-8"?>
<svg xmlns="http://www.w3.org/2000/svg" width="1180" height="610" viewBox="0 0 1180 610" role="img" aria-labelledby="title desc">
<title id="title">Rajveerr Awachat GitHub Hero Banner</title>
<desc id="desc">Animated premium dark GitHub profile banner.</desc>

<defs>
  <linearGradient id="bg" x1="0" y1="0" x2="1" y2="1">
    <stop offset="0%" stop-color="#09090b">
      <animate attributeName="stop-color" values="#09090b;#111827;#09090b" dur="12s" repeatCount="indefinite"/>
    </stop>
    <stop offset="100%" stop-color="#0f172a"/>
  </linearGradient>

  <linearGradient id="accent" x1="0" y1="0" x2="1" y2="0">
    <stop offset="0%" stop-color="#22d3ee"/>
    <stop offset="50%" stop-color="#8b5cf6"/>
    <stop offset="100%" stop-color="#3b82f6"/>
    <animateTransform attributeName="gradientTransform"
      type="rotate" from="0 .5 .5" to="360 .5 .5"
      dur="20s" repeatCount="indefinite"/>
  </linearGradient>

  <filter id="glow">
    <feGaussianBlur stdDeviation="6" result="b"/>
    <feMerge>
      <feMergeNode in="b"/>
      <feMergeNode in="SourceGraphic"/>
    </feMerge>
  </filter>

  <pattern id="grid" width="40" height="40" patternUnits="userSpaceOnUse">
    <path d="M40 0H0V40" fill="none" stroke="#ffffff12"/>
  </pattern>
</defs>

<rect width="1180" height="610" rx="30" fill="url(#bg)"/>
<rect width="1180" height="610" rx="30" fill="url(#grid)"/>

<circle cx="930" cy="120" r="170" fill="#8b5cf620" filter="url(#glow)">
  <animate attributeName="r" values="170;190;170" dur="8s" repeatCount="indefinite"/>
</circle>

<circle cx="260" cy="520" r="130" fill="#22d3ee18" filter="url(#glow)">
  <animate attributeName="cx" values="260;280;260" dur="10s" repeatCount="indefinite"/>
</circle>

<rect x="55" y="55" width="1070" height="500" rx="28" fill="#ffffff08" stroke="#ffffff18"/>

<text x="95" y="120" fill="white" font-size="42" font-family="Segoe UI,Arial" font-weight="700">
Rajveerr Awachat
</text>

<text x="95" y="160" fill="#b8c0cc" font-size="20" font-family="Segoe UI,Arial">
AI Engineer • Software Developer • Robotics Enthusiast
</text>

<text x="95" y="198" fill="#9ca3af" font-size="16" font-family="Segoe UI,Arial">
B.Tech CSE @ Ramdeobaba University • Nagpur, India
</text>

<rect x="95" y="235" width="510" height="170" rx="18" fill="#0b1220cc" stroke="#2a3444"/>

<text x="115" y="265" fill="#22d3ee" font-size="16" font-family="Consolas,monospace">$ jarvis --status</text>

<text x="115" y="300" fill="#e5e7eb" font-size="15" font-family="Consolas,monospace">
Current Focus: AI Agents | Robotics | Computer Vision
</text>

<text x="115" y="328" fill="#e5e7eb" font-size="15" font-family="Consolas,monospace">
Building: Jarvis AI • F1 Garage • LLM Projects
</text>

<text x="115" y="356" fill="#e5e7eb" font-size="15" font-family="Consolas,monospace">
Status: Always Learning_
<animate attributeName="opacity" values="1;1;1;0" dur="1s" repeatCount="indefinite"/>
</text>

<g transform="translate(760 130)">
<circle r="90" fill="none" stroke="url(#accent)" stroke-width="2">
<animateTransform attributeName="transform" type="rotate" from="0" to="360" dur="18s" repeatCount="indefinite"/>
</circle>

<circle r="70" fill="none" stroke="#22d3ee55"/>

<path d="M-20,-10 Q0,-40 20,-10 M-28,20 Q0,55 28,20 M-40,-55 L40,-55 M-55,-70 L55,-70"
stroke="url(#accent)" stroke-width="2" fill="none"/>

<circle r="4" fill="#22d3ee"/>
</g>

<g font-family="Segoe UI,Arial" font-size="15">
<rect x="95" y="445" width="66" height="34" rx="17" fill="#151d2d" stroke="#324055"/>
<text x="109" y="467" fill="#d1d5db">Python</text>
<rect x="173" y="445" width="50" height="34" rx="17" fill="#151d2d" stroke="#324055"/>
<text x="187" y="467" fill="#d1d5db">Java</text>
<rect x="235" y="445" width="42" height="34" rx="17" fill="#151d2d" stroke="#324055"/>
<text x="249" y="467" fill="#d1d5db">C++</text>
<rect x="289" y="445" width="34" height="34" rx="17" fill="#151d2d" stroke="#324055"/>
<text x="303" y="467" fill="#d1d5db">AI</text>
<rect x="335" y="445" width="50" height="34" rx="17" fill="#151d2d" stroke="#324055"/>
<text x="349" y="467" fill="#d1d5db">LLMs</text>
<rect x="397" y="445" width="66" height="34" rx="17" fill="#151d2d" stroke="#324055"/>
<text x="411" y="467" fill="#d1d5db">OpenCV</text>
<rect x="475" y="445" width="58" height="34" rx="17" fill="#151d2d" stroke="#324055"/>
<text x="489" y="467" fill="#d1d5db">React</text>
<rect x="545" y="445" width="82" height="34" rx="17" fill="#151d2d" stroke="#324055"/>
<text x="559" y="467" fill="#d1d5db">Three.js</text>
<rect x="639" y="445" width="58" height="34" rx="17" fill="#151d2d" stroke="#324055"/>
<text x="653" y="467" fill="#d1d5db">ESP32</text>
<rect x="709" y="445" width="42" height="34" rx="17" fill="#151d2d" stroke="#324055"/>
<text x="723" y="467" fill="#d1d5db">Git</text>

</g>

<text x="95" y="535" fill="#94a3b8" font-size="15" font-family="Segoe UI,Arial">
github.com/Rajveerr-2424
</text>

<line x1="95" y1="548" x2="330" y2="548" stroke="url(#accent)" stroke-width="2">
<animate attributeName="x2" values="95;330;95" dur="4s" repeatCount="indefinite"/>
</line>

</svg>
